<svg width="174" height="160" viewBox="0 0 174 160" fill="none" xmlns="http://www.w3.org/2000/svg">
<g clip-path="url(#clip0_1047_12485)">
<path d="M23.1092 108.651C18.2297 108.65 13.5502 106.712 10.0999 103.262C6.64963 99.8114 4.71118 95.1319 4.71094 90.2524C4.71094 81.4868 6.21339 80.2178 24.5937 64.6966C32.6227 57.9163 43.3288 48.935 54.0351 39.974C75.4179 22.0787 96.7986 4.26451 96.7986 4.26451C100.548 1.14642 105.382 -0.355502 110.239 0.0887668C115.095 0.533035 119.577 2.88715 122.698 6.63382C125.82 10.3805 127.326 15.2132 126.887 20.07C126.447 24.9269 124.097 29.4105 120.353 32.5356C90.5236 57.3862 42.0621 97.9042 36.2857 103.092C34.5735 104.854 32.525 106.254 30.2615 107.208C27.998 108.163 25.5658 108.654 23.1092 108.651ZM38.4889 100.354C37.9652 101.149 37.3811 101.902 36.7416 102.607C37.3866 101.907 37.9711 101.153 38.4889 100.354Z" fill="#E5E5E5"/>
<path d="M18.9656 151.16C14.0862 151.16 9.40664 149.222 5.95636 145.771C2.50608 142.321 0.567623 137.642 0.567383 132.762C0.567383 123.687 1.78464 122.714 22.1121 106.488C30.9025 99.4693 42.6259 90.1714 54.3471 80.8937C77.7628 62.363 101.178 43.9131 101.178 43.9131C105.011 40.8932 109.886 39.5194 114.731 40.0939C117.13 40.3783 119.45 41.1325 121.557 42.3135C123.665 43.4944 125.519 45.0789 127.015 46.9765C128.51 48.8741 129.617 51.0476 130.272 53.373C130.928 55.6984 131.118 58.13 130.834 60.5292C130.55 62.9283 129.795 65.248 128.614 67.3556C127.433 69.4633 125.849 71.3177 123.951 72.813C91.1526 98.6584 37.9073 140.757 31.7761 145.968C28.3466 149.303 23.7496 151.167 18.9656 151.16ZM34.4666 142.676C33.8105 143.701 33.0536 144.659 32.2073 145.535C33.0597 144.664 33.8171 143.706 34.4666 142.675V142.676Z" fill="#E5E5E5"/>
<path d="M72.074 150.39C67.1946 150.39 62.515 148.452 59.0648 145.001C55.6145 141.551 53.676 136.871 53.6758 131.992C53.6758 123.599 55.0885 122.321 72.3929 106.685C79.9997 99.8086 90.1444 90.7016 100.289 81.6147C120.551 63.4681 140.811 45.4022 140.811 45.4022C144.453 42.1548 149.236 40.487 154.107 40.7658C158.979 41.0446 163.54 43.2472 166.787 46.8889C170.035 50.5307 171.702 55.3134 171.424 60.1848C171.145 65.0562 168.942 69.6174 165.3 72.8648C137.052 98.0546 91.1551 139.123 85.6594 144.398C83.9376 146.289 81.8396 147.798 79.5001 148.83C77.1605 149.862 74.631 150.393 72.074 150.39ZM87.3595 142.235C86.9842 142.794 86.5785 143.332 86.1444 143.846C86.582 143.334 86.9878 142.797 87.3595 142.235Z" fill="#E5E5E5"/>
<path d="M173.433 74.1345V90.9281C173.432 92.3956 172.848 93.8026 171.811 94.8403C170.773 95.8779 169.366 96.4613 167.899 96.4624H6.97505C6.2448 96.4668 5.52086 96.327 4.84475 96.051C4.16864 95.7751 3.55366 95.3683 3.03507 94.8542C2.51648 94.34 2.10449 93.7285 1.82272 93.0548C1.54095 92.3811 1.39494 91.6584 1.39307 90.9281V74.1345C1.39494 73.4042 1.54095 72.6815 1.82272 72.0078C2.10449 71.3341 2.51648 70.7226 3.03507 70.2084C3.55366 69.6943 4.16864 69.2876 4.84475 69.0116C5.52086 68.7356 6.2448 68.5958 6.97505 68.6002H167.898C169.366 68.6012 170.773 69.1846 171.811 70.2223C172.848 71.2599 173.432 72.667 173.433 74.1345Z" fill="white"/>
<path d="M109.169 77.5221C109.17 82.1714 108.256 86.7755 106.477 91.0712C104.699 95.3669 102.091 99.27 98.8038 102.558C95.5162 105.845 91.6131 108.453 87.3174 110.231C83.0217 112.009 78.4177 112.924 73.7684 112.922C72.0418 112.926 70.318 112.782 68.6158 112.493C60.2139 111.27 52.5332 107.063 46.9788 100.641C41.4245 94.2193 38.3677 86.0126 38.3677 77.5221C38.3677 69.0317 41.4245 60.825 46.9788 54.4034C52.5332 47.9818 60.2139 43.7745 68.6158 42.5513C70.318 42.2623 72.0418 42.1186 73.7684 42.1219C78.4177 42.1202 83.0217 43.0348 87.3174 44.8132C91.6131 46.5917 95.5162 49.1992 98.8038 52.4867C102.091 55.7743 104.699 59.6774 106.477 63.9731C108.256 68.2688 109.17 72.8729 109.169 77.5221Z" fill="#E5E5E5"/>
<path d="M98.863 77.5219C98.8569 86.0107 95.7981 94.2141 90.2449 100.634C84.6917 107.055 77.0146 111.264 68.6153 112.493C60.2134 111.27 52.5327 107.062 46.9783 100.641C41.424 94.2191 38.3672 86.0124 38.3672 77.5219C38.3672 69.0314 41.424 60.8248 46.9783 54.4031C52.5327 47.9815 60.2134 43.7743 68.6153 42.551C77.0146 43.7801 84.6917 47.989 90.2449 54.4094C95.7981 60.8297 98.8569 69.0332 98.863 77.5219Z" fill="white"/>
<path d="M142.704 130.75L108.923 98.6913C112.88 92.3283 114.981 84.9867 114.99 77.4937C114.986 66.5619 110.647 56.0779 102.924 48.3409C95.2015 40.6039 84.7254 36.2457 73.7936 36.2222C62.8648 36.2776 52.3994 40.6436 44.6715 48.3716C36.9435 56.0995 32.5775 66.5649 32.5221 77.4937C32.4802 85.1293 34.569 92.6253 38.5536 99.1389C42.5382 105.652 48.2608 110.925 55.0778 114.365C61.8949 117.805 69.5363 119.275 77.143 118.61C84.7498 117.945 92.0202 115.171 98.1371 110.601L131.618 142.36C133.009 143.705 134.844 144.494 136.776 144.576C138.709 144.659 140.605 144.031 142.105 142.809C142.414 142.6 142.691 142.348 142.929 142.06C144.392 140.527 145.19 138.478 145.148 136.359C145.106 134.24 144.228 132.224 142.704 130.75ZM73.7936 110.751C66.9893 110.769 60.3439 108.695 54.7587 104.808C49.1736 100.922 44.919 95.4112 42.572 89.0245C40.225 82.6377 39.8992 75.6836 41.6388 69.1054C43.3784 62.5272 47.0992 56.6432 52.2965 52.2515C58.2783 47.1128 65.9077 44.295 73.7936 44.3118C82.592 44.3301 91.0238 47.838 97.2387 54.0659C103.454 60.2937 106.944 68.7328 106.944 77.5312C106.944 86.3296 103.454 94.7687 97.2387 100.997C91.0238 107.224 82.592 110.732 73.7936 110.751Z" fill="#912512"/>
<path d="M160.838 154.048C160.554 154.529 160.218 154.977 159.836 155.384C159.454 155.908 159.263 156.195 159.263 156.195C158.527 156.982 157.693 157.671 156.782 158.246C154.612 159.6 152.055 160.198 149.51 159.948C146.964 159.698 144.573 158.613 142.708 156.863L133.834 148.704L107.88 124.897C106.649 123.753 105.919 122.17 105.848 120.491C105.776 118.812 106.369 117.173 107.499 115.928L111.172 111.92L113.176 109.773L114.75 108.056C115.311 107.436 115.989 106.934 116.745 106.579C117.501 106.224 118.32 106.023 119.155 105.988C119.99 105.952 120.823 106.083 121.607 106.372C122.39 106.662 123.109 107.105 123.72 107.674L150.485 132.245L158.547 139.639C160.476 141.445 161.748 143.842 162.163 146.451C162.578 149.06 162.111 151.733 160.838 154.048Z" fill="#F5B441"/>
<path d="M173.433 74.1349V90.9285C173.432 92.396 172.848 93.803 171.811 94.8407C170.773 95.8783 169.366 96.4617 167.898 96.4628H145.141V68.6006H167.898C169.366 68.6017 170.773 69.1851 171.811 70.2227C172.848 71.2604 173.432 72.6674 173.433 74.1349Z" fill="#912512"/>
<path d="M168.303 89.2844L162.649 83.9187C163.311 82.8537 163.663 81.6249 163.664 80.3708C163.664 78.5411 162.937 76.7864 161.645 75.4914C160.352 74.1965 158.599 73.4671 156.769 73.4631C154.94 73.4724 153.188 74.2032 151.895 75.4966C150.601 76.79 149.871 78.5416 149.861 80.3708C149.854 81.6488 150.204 82.9034 150.871 83.9936C151.538 85.0838 152.496 85.9664 153.637 86.5421C154.778 87.1178 156.057 87.3638 157.33 87.2525C158.603 87.1413 159.82 86.677 160.844 85.9121L166.447 91.2276C166.68 91.4528 166.987 91.5848 167.311 91.5986C167.634 91.6125 167.951 91.5072 168.203 91.3028C168.254 91.2678 168.301 91.2256 168.34 91.1774C168.585 90.9209 168.719 90.5779 168.712 90.2232C168.705 89.8685 168.558 89.5311 168.303 89.2844ZM156.769 85.9373C155.63 85.9404 154.518 85.5932 153.583 84.9426C152.648 84.2921 151.936 83.3699 151.544 82.3009C151.151 81.2319 151.096 80.068 151.387 78.967C151.678 77.866 152.301 76.8812 153.171 76.1462C154.172 75.2861 155.449 74.8145 156.769 74.8173C158.244 74.8173 159.658 75.4031 160.701 76.4458C161.743 77.4885 162.329 78.9027 162.329 80.3773C162.329 81.8519 161.743 83.2661 160.701 84.3088C159.658 85.3515 158.244 85.9373 156.769 85.9373Z" fill="white"/>
<path d="M57.4657 74.817C59.2698 74.817 60.7322 73.3545 60.7322 71.5504C60.7322 69.7464 59.2698 68.2839 57.4657 68.2839C55.6617 68.2839 54.1992 69.7464 54.1992 71.5504C54.1992 73.3545 55.6617 74.817 57.4657 74.817Z" fill="#912512"/>
<path d="M88.8358 74.817C90.6399 74.817 92.1024 73.3545 92.1024 71.5504C92.1024 69.7464 90.6399 68.2839 88.8358 68.2839C87.0318 68.2839 85.5693 69.7464 85.5693 71.5504C85.5693 73.3545 87.0318 74.817 88.8358 74.817Z" fill="#912512"/>
<path d="M58.9354 92.7853C58.4007 92.786 57.8814 92.607 57.4606 92.2771C57.0399 91.9472 56.7423 91.4855 56.6154 90.9661C56.4886 90.4467 56.54 89.8997 56.7613 89.413C56.9826 88.9263 57.361 88.5281 57.8358 88.2823C62.3294 86.1366 67.2416 85.0102 72.2211 84.9836C77.2006 84.9571 82.1245 86.031 86.6408 88.1286C86.9217 88.2687 87.1722 88.4629 87.3779 88.7C87.5837 88.9372 87.7406 89.2126 87.8396 89.5104C87.9387 89.8083 87.9781 90.1228 87.9554 90.4359C87.9327 90.749 87.8484 91.0546 87.7074 91.3351C87.5664 91.6156 87.3714 91.8654 87.1336 92.0704C86.8959 92.2754 86.62 92.4314 86.3218 92.5296C86.0236 92.6278 85.709 92.6661 85.3959 92.6424C85.0829 92.6188 84.7776 92.5335 84.4976 92.3916C80.6466 90.658 76.468 89.7727 72.2448 89.7956C68.0217 89.8185 63.8529 90.7491 60.021 92.5244C59.6847 92.6957 59.3128 92.7852 58.9354 92.7853Z" fill="#912512"/>
<path d="M160.837 154.048C160.554 154.529 160.218 154.977 159.835 155.384C159.454 155.908 159.263 156.195 159.263 156.195C158.527 156.982 157.693 157.671 156.782 158.246C154.612 159.6 152.055 160.198 149.51 159.948C146.964 159.698 144.573 158.613 142.708 156.863L135.122 149.897L147.765 135.393L150.484 132.245L158.547 139.64C160.476 141.445 161.748 143.842 162.163 146.451C162.577 149.06 162.111 151.733 160.837 154.048Z" fill="#EAB308"/>
<path d="M157.784 156.91C157.501 157.392 157.165 157.84 156.782 158.246C154.612 159.6 152.055 160.198 149.51 159.948C146.964 159.698 144.573 158.613 142.708 156.863L133.834 148.704L107.88 124.897C106.649 123.753 105.919 122.17 105.848 120.491C105.776 118.812 106.369 117.173 107.499 115.928L111.172 111.921L113.176 109.774C114.335 109.06 115.696 108.747 117.051 108.885C118.405 109.023 119.675 109.604 120.666 110.537L147.431 135.107L155.494 142.502C157.423 144.308 158.695 146.705 159.11 149.314C159.524 151.923 159.058 154.596 157.784 156.91Z" fill="#F9D28D"/>
<path d="M157.784 156.91C157.501 157.391 157.165 157.839 156.782 158.246C154.612 159.6 152.055 160.198 149.51 159.948C146.964 159.697 144.573 158.613 142.708 156.862L135.122 149.897L147.765 135.393L155.494 142.502C157.423 144.308 158.695 146.704 159.109 149.313C159.524 151.922 159.058 154.595 157.784 156.91Z" fill="#F5B441"/>
<path d="M130.04 139.868C129.891 139.869 129.747 139.813 129.637 139.712L110.171 121.91C110.055 121.803 109.985 121.654 109.978 121.496C109.971 121.337 110.027 121.183 110.134 121.066C110.241 120.949 110.39 120.88 110.548 120.873C110.706 120.866 110.861 120.922 110.978 121.029L130.443 138.831C130.532 138.913 130.594 139.019 130.622 139.136C130.649 139.253 130.641 139.376 130.597 139.488C130.553 139.6 130.477 139.696 130.378 139.764C130.278 139.832 130.161 139.868 130.04 139.868H130.04Z" fill="white"/>
<path d="M135.855 145.18C135.707 145.18 135.563 145.125 135.454 145.024L131.182 141.136C131.124 141.083 131.076 141.02 131.043 140.949C131.009 140.879 130.99 140.802 130.986 140.724C130.983 140.645 130.995 140.567 131.021 140.494C131.048 140.42 131.089 140.352 131.142 140.295C131.249 140.179 131.397 140.11 131.555 140.102C131.712 140.095 131.866 140.15 131.983 140.255L136.256 144.143C136.344 144.224 136.407 144.33 136.434 144.447C136.461 144.564 136.453 144.687 136.41 144.799C136.366 144.911 136.29 145.007 136.191 145.075C136.092 145.143 135.975 145.18 135.855 145.18H135.855Z" fill="white"/>
<path d="M130.825 50.6503L132.311 50.344C132.46 50.3111 132.594 50.2284 132.689 50.1094C132.785 49.9904 132.837 49.8423 132.837 49.6897C132.837 49.537 132.785 49.3889 132.689 49.2699C132.594 49.1509 132.46 49.0682 132.311 49.0354L130.825 48.729C130.104 48.5766 129.444 48.2151 128.928 47.6897C128.411 47.1643 128.06 46.4983 127.92 45.7749L127.619 44.2641C127.591 44.1139 127.511 43.9781 127.394 43.8804C127.276 43.7827 127.128 43.7292 126.975 43.7292C126.822 43.7292 126.674 43.7827 126.557 43.8804C126.439 43.9781 126.36 44.1139 126.332 44.2641L126.031 45.7749C125.89 46.4983 125.54 47.1643 125.023 47.6897C124.506 48.2151 123.846 48.5766 123.125 48.729L121.639 49.0354C121.49 49.0682 121.357 49.1509 121.261 49.2699C121.165 49.3889 121.113 49.537 121.113 49.6897C121.113 49.8423 121.165 49.9904 121.261 50.1094C121.357 50.2284 121.49 50.3111 121.639 50.344L123.125 50.6503C123.846 50.8027 124.506 51.1642 125.023 51.6896C125.54 52.215 125.89 52.881 126.031 53.6045L126.332 55.1152C126.36 55.2655 126.439 55.4012 126.557 55.4989C126.674 55.5966 126.822 55.6501 126.975 55.6501C127.128 55.6501 127.276 55.5966 127.394 55.4989C127.511 55.4012 127.591 55.2655 127.619 55.1152L127.92 53.6045C128.06 52.881 128.411 52.215 128.928 51.6896C129.444 51.1642 130.104 50.8027 130.825 50.6503Z" fill="#F9D28D"/>
<path d="M61.3294 23.0157L63.4975 22.5687C63.7151 22.5208 63.9098 22.4001 64.0494 22.2265C64.189 22.0528 64.2651 21.8367 64.2651 21.6139C64.2651 21.3911 64.189 21.175 64.0494 21.0014C63.9098 20.8278 63.7151 20.707 63.4975 20.6592L61.3294 20.2121C60.2773 19.9896 59.3141 19.4621 58.5601 18.6954C57.8061 17.9287 57.2947 16.9569 57.0898 15.9012L56.6501 13.6967C56.6094 13.4774 56.4932 13.2793 56.3217 13.1368C56.1502 12.9942 55.9342 12.9161 55.7112 12.9161C55.4881 12.9161 55.2722 12.9942 55.1006 13.1368C54.9291 13.2793 54.813 13.4774 54.7722 13.6967L54.3326 15.9012C54.1276 16.9569 53.6162 17.9287 52.8622 18.6954C52.1082 19.4621 51.145 19.9896 50.0929 20.2121L47.9249 20.6592C47.7073 20.707 47.5125 20.8278 47.3729 21.0014C47.2333 21.175 47.1572 21.3911 47.1572 21.6139C47.1572 21.8367 47.2333 22.0528 47.3729 22.2265C47.5125 22.4001 47.7073 22.5208 47.9249 22.5687L50.0929 23.0157C51.145 23.2382 52.1082 23.7658 52.8622 24.5325C53.6162 25.2992 54.1276 26.271 54.3326 27.3266L54.7722 29.5312C54.813 29.7505 54.9291 29.9485 55.1006 30.0911C55.2722 30.2337 55.4881 30.3117 55.7112 30.3117C55.9342 30.3117 56.1502 30.2337 56.3217 30.0911C56.4932 29.9485 56.6094 29.7505 56.6501 29.5312L57.0898 27.3266C57.2947 26.271 57.8061 25.2992 58.5601 24.5325C59.3141 23.7658 60.2773 23.2382 61.3294 23.0157Z" fill="#F9D28D"/>
<path d="M21.5657 126.379L22.7899 126.127C22.9127 126.1 23.0227 126.032 23.1015 125.934C23.1804 125.835 23.2233 125.713 23.2233 125.588C23.2233 125.462 23.1804 125.34 23.1015 125.242C23.0227 125.144 22.9127 125.076 22.7899 125.049L21.5657 124.796C20.9716 124.67 20.4277 124.373 20.0019 123.94C19.5762 123.507 19.2874 122.958 19.1717 122.362L18.9236 121.117C18.9008 120.993 18.8353 120.881 18.7384 120.8C18.6415 120.72 18.5195 120.676 18.3934 120.676C18.2673 120.676 18.1453 120.72 18.0484 120.8C17.9515 120.881 17.886 120.993 17.8632 121.117L17.6151 122.362C17.4994 122.958 17.2106 123.507 16.7849 123.94C16.3591 124.373 15.8152 124.67 15.2211 124.796L13.9969 125.049C13.8741 125.076 13.7641 125.144 13.6853 125.242C13.6065 125.34 13.5635 125.462 13.5635 125.588C13.5635 125.713 13.6065 125.835 13.6853 125.934C13.7641 126.032 13.8741 126.1 13.9969 126.127L15.2211 126.379C15.8152 126.505 16.3591 126.803 16.7849 127.236C17.2106 127.669 17.4994 128.217 17.6151 128.813L17.8632 130.058C17.886 130.182 17.9515 130.294 18.0484 130.375C18.1453 130.456 18.2673 130.5 18.3934 130.5C18.5195 130.5 18.6415 130.456 18.7384 130.375C18.8353 130.294 18.9008 130.182 18.9236 130.058L19.1717 128.813C19.2874 128.217 19.5762 127.669 20.002 127.236C20.4277 126.803 20.9716 126.505 21.5657 126.379Z" fill="#F9D28D"/>
<path d="M99.0594 148.912L101.27 148.457C101.492 148.408 101.69 148.285 101.833 148.108C101.975 147.931 102.053 147.71 102.053 147.483C102.053 147.256 101.975 147.036 101.833 146.859C101.69 146.682 101.492 146.558 101.27 146.51L99.0594 146.054C97.9868 145.827 97.0048 145.289 96.236 144.508C95.4673 143.726 94.9459 142.735 94.737 141.659L94.2887 139.411C94.2472 139.188 94.1287 138.986 93.9539 138.84C93.779 138.695 93.5588 138.615 93.3314 138.615C93.104 138.615 92.8838 138.695 92.709 138.84C92.5341 138.986 92.4156 139.188 92.3741 139.411L91.9259 141.659C91.717 142.735 91.1956 143.726 90.4268 144.508C89.6581 145.289 88.6761 145.827 87.6035 146.054L85.3931 146.51C85.1712 146.558 84.9726 146.682 84.8303 146.859C84.6879 147.036 84.6104 147.256 84.6104 147.483C84.6104 147.71 84.6879 147.931 84.8303 148.108C84.9726 148.285 85.1712 148.408 85.3931 148.457L87.6035 148.912C88.6761 149.139 89.6581 149.677 90.4268 150.459C91.1956 151.24 91.717 152.231 91.9259 153.307L92.3741 155.555C92.4156 155.779 92.5341 155.981 92.709 156.126C92.8838 156.271 93.104 156.351 93.3314 156.351C93.5588 156.351 93.779 156.271 93.9539 156.126C94.1287 155.981 94.2472 155.779 94.2887 155.555L94.737 153.307C94.9459 152.231 95.4673 151.24 96.2361 150.459C97.0048 149.677 97.9868 149.139 99.0594 148.912Z" fill="#F9D28D"/>
<path d="M107.206 27.4732C107.08 27.5878 106.932 27.6764 106.772 27.734C106.611 27.7915 106.441 27.8168 106.27 27.8085C106.1 27.8002 105.933 27.7584 105.779 27.6855C105.624 27.6127 105.486 27.5101 105.371 27.3838L103.065 24.8347C102.836 24.5785 102.717 24.2419 102.735 23.8985C102.753 23.555 102.906 23.2327 103.162 23.002C103.417 22.7713 103.753 22.651 104.096 22.6674C104.44 22.6838 104.763 22.8356 104.995 23.0895L107.301 25.6388C107.531 25.8946 107.651 26.2315 107.633 26.5756C107.616 26.9196 107.462 27.2425 107.206 27.4732Z" fill="#912512"/>
<path d="M113.414 34.3366C113.288 34.4512 113.14 34.5398 112.98 34.5973C112.819 34.6548 112.649 34.6802 112.478 34.6719C112.308 34.6636 112.141 34.6218 111.987 34.5489C111.833 34.476 111.694 34.3735 111.58 34.2471L109.274 31.698C109.042 31.4422 108.922 31.1049 108.939 30.7604C108.956 30.4159 109.11 30.0923 109.366 29.8609C109.621 29.6295 109.959 29.5092 110.303 29.5264C110.648 29.5437 110.971 29.6971 111.203 29.9529L113.509 32.5021C113.74 32.7579 113.859 33.0949 113.841 33.4389C113.824 33.7829 113.67 34.1058 113.414 34.3366Z" fill="#912512"/>
<path d="M113.876 25.3619L111.32 27.6741C111.065 27.9049 110.728 28.0249 110.385 28.0077C110.041 27.9905 109.718 27.8375 109.488 27.5824C109.257 27.3272 109.137 26.9909 109.154 26.6472C109.171 26.3036 109.324 25.9809 109.579 25.7501L112.135 23.4379C112.262 23.3228 112.409 23.2338 112.57 23.1759C112.731 23.1181 112.901 23.0925 113.072 23.1007C113.242 23.1089 113.41 23.1508 113.564 23.2238C113.718 23.2968 113.857 23.3996 113.971 23.5262C114.086 23.6529 114.174 23.8009 114.232 23.9618C114.289 24.1227 114.314 24.2934 114.305 24.4639C114.296 24.6345 114.254 24.8016 114.18 24.9557C114.106 25.1098 114.003 25.2478 113.876 25.3619Z" fill="#912512"/>
<path d="M106.994 31.5866L104.438 33.8986C104.312 34.0128 104.165 34.1011 104.004 34.1584C103.844 34.2156 103.673 34.2407 103.503 34.2322C103.333 34.2236 103.166 34.1817 103.012 34.1087C102.859 34.0357 102.72 33.9331 102.606 33.8068C102.492 33.6805 102.404 33.5329 102.346 33.3724C102.289 33.212 102.264 33.0418 102.273 32.8717C102.281 32.7015 102.323 32.5347 102.396 32.3808C102.469 32.2269 102.572 32.0888 102.698 31.9746L105.254 29.6624C105.38 29.5481 105.528 29.4598 105.688 29.4026C105.849 29.3454 106.019 29.3204 106.189 29.3289C106.359 29.3374 106.526 29.3794 106.68 29.4524C106.834 29.5254 106.972 29.628 107.086 29.7544C107.201 29.8807 107.289 30.0283 107.346 30.1888C107.403 30.3493 107.428 30.5194 107.42 30.6896C107.411 30.8597 107.369 31.0265 107.296 31.1804C107.223 31.3343 107.121 31.4724 106.994 31.5866Z" fill="#912512"/>
<path d="M12.7334 45.8138C12.6364 45.9018 12.5231 45.9698 12.3998 46.014C12.2765 46.0582 12.1457 46.0776 12.0149 46.0712C11.8841 46.0648 11.7559 46.0328 11.6375 45.9768C11.5191 45.9209 11.4129 45.8422 11.3249 45.7452L9.55488 43.7883C9.37723 43.5919 9.28488 43.333 9.29813 43.0685C9.31138 42.804 9.42915 42.5556 9.62554 42.378C9.82192 42.2004 10.0808 42.108 10.3453 42.1212C10.6098 42.1345 10.8582 42.2523 11.0358 42.4487L12.8058 44.4056C12.983 44.6019 13.0748 44.8606 13.0613 45.1247C13.0477 45.3888 12.9297 45.6367 12.7334 45.8138Z" fill="#912512"/>
<path d="M17.4995 51.0827C17.4025 51.1707 17.2892 51.2387 17.1659 51.2829C17.0426 51.3271 16.9118 51.3465 16.781 51.3401C16.6503 51.3338 16.522 51.3017 16.4036 51.2458C16.2852 51.1898 16.179 51.1111 16.091 51.0141L14.321 49.0572C14.1433 48.8608 14.051 48.6019 14.0642 48.3374C14.0775 48.0729 14.1953 47.8246 14.3916 47.6469C14.588 47.4693 14.8469 47.3769 15.1114 47.3902C15.3759 47.4034 15.6243 47.5212 15.8019 47.7176L17.5719 49.6745C17.7491 49.8709 17.841 50.1295 17.8274 50.3936C17.8138 50.6577 17.6959 50.9056 17.4995 51.0827Z" fill="#912512"/>
<path d="M17.8534 44.1932L15.8912 45.968C15.7946 46.0579 15.6811 46.1276 15.5573 46.1732C15.4335 46.2188 15.3019 46.2393 15.1701 46.2336C15.0383 46.2279 14.9089 46.1961 14.7895 46.14C14.6701 46.0839 14.5631 46.0046 14.4746 45.9067C14.3861 45.8089 14.3179 45.6944 14.274 45.57C14.2301 45.4456 14.2114 45.3137 14.2189 45.182C14.2264 45.0503 14.26 44.9214 14.3178 44.8027C14.3756 44.6841 14.4563 44.5782 14.5554 44.491L16.5175 42.7163C16.6141 42.6264 16.7276 42.5567 16.8514 42.5111C16.9752 42.4655 17.1068 42.4449 17.2387 42.4506C17.3705 42.4563 17.4998 42.4882 17.6192 42.5443C17.7386 42.6004 17.8457 42.6797 17.9342 42.7775C18.0227 42.8754 18.0908 42.9898 18.1347 43.1143C18.1786 43.2387 18.1973 43.3706 18.1898 43.5023C18.1823 43.634 18.1487 43.7629 18.0909 43.8815C18.0332 44.0001 17.9524 44.1061 17.8534 44.1932Z" fill="#912512"/>
<path d="M12.5707 48.9723L10.6087 50.7471C10.5117 50.8348 10.3984 50.9026 10.2752 50.9465C10.1521 50.9904 10.0214 51.0097 9.89084 51.0031C9.76022 50.9966 9.63218 50.9644 9.51401 50.9084C9.39585 50.8523 9.28988 50.7736 9.20215 50.6766C9.11442 50.5796 9.04665 50.4663 9.00271 50.3431C8.95877 50.22 8.93953 50.0893 8.94607 49.9587C8.95262 49.8281 8.98482 49.7001 9.04085 49.5819C9.09688 49.4637 9.17563 49.3578 9.27261 49.27L11.2348 47.4953C11.3316 47.4065 11.445 47.3377 11.5685 47.293C11.692 47.2482 11.8231 47.2283 11.9544 47.2345C12.0856 47.2406 12.2143 47.2727 12.333 47.3287C12.4518 47.3848 12.5583 47.4639 12.6464 47.5613C12.7345 47.6587 12.8025 47.7726 12.8464 47.8964C12.8903 48.0202 12.9093 48.1515 12.9022 48.2826C12.8952 48.4138 12.8623 48.5423 12.8054 48.6607C12.7485 48.779 12.6687 48.885 12.5707 48.9724L12.5707 48.9723Z" fill="#912512"/>
<path d="M42.2785 141.758C42.1815 141.846 42.0681 141.914 41.9448 141.958C41.8216 142.002 41.6908 142.022 41.56 142.015C41.4292 142.009 41.3009 141.977 41.1825 141.921C41.0642 141.865 40.9579 141.786 40.87 141.689L39.0999 139.732C38.9231 139.536 38.8315 139.277 38.8451 139.013C38.8587 138.749 38.9764 138.502 39.1724 138.324C39.3684 138.147 39.6268 138.054 39.8908 138.067C40.1548 138.08 40.403 138.197 40.5808 138.393L42.3512 140.35C42.4389 140.447 42.5066 140.56 42.5504 140.684C42.5942 140.807 42.6133 140.938 42.6066 141.069C42.5998 141.2 42.5673 141.328 42.5111 141.446C42.4548 141.564 42.3757 141.67 42.2785 141.758Z" fill="#912512"/>
<path d="M47.0446 147.027C46.9476 147.115 46.8342 147.183 46.711 147.227C46.5877 147.271 46.4569 147.291 46.3261 147.284C46.1953 147.278 46.0671 147.246 45.9487 147.19C45.8303 147.134 45.724 147.055 45.6361 146.958L43.8661 145.001C43.6893 144.805 43.5976 144.546 43.6112 144.282C43.6248 144.018 43.7425 143.77 43.9385 143.593C44.1345 143.416 44.3929 143.323 44.6569 143.336C44.9209 143.349 45.1691 143.466 45.347 143.662L47.1173 145.619C47.2944 145.815 47.3862 146.074 47.3726 146.338C47.3589 146.602 47.241 146.85 47.0446 147.027Z" fill="#912512"/>
<path d="M47.3988 140.137L45.4366 141.912C45.34 142.002 45.2265 142.071 45.1027 142.117C44.9789 142.163 44.8473 142.183 44.7155 142.177C44.5837 142.172 44.4543 142.14 44.3349 142.084C44.2155 142.028 44.1085 141.948 44.02 141.851C43.9315 141.753 43.8633 141.638 43.8194 141.514C43.7755 141.389 43.7568 141.258 43.7643 141.126C43.7718 140.994 43.8054 140.865 43.8632 140.747C43.921 140.628 44.0017 140.522 44.1008 140.435L46.063 138.66C46.1596 138.57 46.2731 138.501 46.3969 138.455C46.5207 138.409 46.6523 138.389 46.7841 138.394C46.9159 138.4 47.0453 138.432 47.1647 138.488C47.2841 138.544 47.3911 138.624 47.4796 138.721C47.5681 138.819 47.6363 138.934 47.6802 139.058C47.7241 139.183 47.7428 139.314 47.7353 139.446C47.7278 139.578 47.6942 139.707 47.6364 139.825C47.5786 139.944 47.4979 140.05 47.3988 140.137Z" fill="#912512"/>
<path d="M42.1164 144.916L40.1544 146.691C40.0578 146.78 39.9443 146.85 39.8205 146.896C39.6967 146.941 39.5651 146.962 39.4333 146.956C39.3014 146.951 39.1721 146.919 39.0527 146.863C38.9333 146.806 38.8262 146.727 38.7377 146.629C38.6492 146.531 38.5811 146.417 38.5372 146.293C38.4933 146.168 38.4746 146.036 38.4821 145.905C38.4896 145.773 38.5232 145.644 38.581 145.525C38.6387 145.407 38.7195 145.301 38.8185 145.214L40.7807 143.439C40.8776 143.35 40.991 143.281 41.1145 143.236C41.238 143.192 41.3691 143.172 41.5003 143.178C41.6315 143.184 41.7602 143.216 41.879 143.272C41.9978 143.328 42.1043 143.407 42.1924 143.505C42.2805 143.602 42.3484 143.716 42.3923 143.84C42.4362 143.964 42.4552 144.095 42.4482 144.226C42.4411 144.357 42.4082 144.486 42.3513 144.604C42.2944 144.722 42.2146 144.828 42.1166 144.916L42.1164 144.916Z" fill="#912512"/>
<path d="M161.297 109.981C161.026 110.226 160.668 110.354 160.303 110.337C159.937 110.319 159.594 110.157 159.348 109.885L156.899 107.178C156.655 106.906 156.53 106.548 156.549 106.184C156.568 105.819 156.731 105.477 157.002 105.232C157.272 104.987 157.629 104.86 157.994 104.877C158.358 104.894 158.701 105.055 158.948 105.324L161.397 108.032C161.642 108.304 161.769 108.662 161.751 109.027C161.732 109.392 161.569 109.735 161.297 109.981Z" fill="#912512"/>
<path d="M167.892 117.27C167.757 117.392 167.6 117.486 167.43 117.547C167.259 117.608 167.078 117.635 166.897 117.626C166.716 117.618 166.539 117.573 166.375 117.496C166.211 117.418 166.064 117.309 165.943 117.175L163.494 114.468C163.25 114.196 163.124 113.838 163.144 113.474C163.163 113.109 163.326 112.767 163.596 112.522C163.867 112.277 164.224 112.149 164.588 112.167C164.953 112.184 165.296 112.345 165.543 112.614L167.992 115.322C168.237 115.594 168.364 115.951 168.345 116.317C168.326 116.682 168.163 117.025 167.892 117.27Z" fill="#912512"/>
<path d="M168.381 107.738L165.667 110.194C165.533 110.316 165.376 110.41 165.205 110.472C165.035 110.533 164.853 110.561 164.672 110.552C164.491 110.543 164.313 110.499 164.149 110.421C163.985 110.344 163.838 110.235 163.716 110.1C163.595 109.965 163.501 109.808 163.44 109.637C163.379 109.466 163.353 109.285 163.362 109.104C163.372 108.923 163.417 108.745 163.495 108.581C163.573 108.418 163.683 108.271 163.818 108.15L166.533 105.694C166.667 105.572 166.824 105.477 166.994 105.416C167.165 105.354 167.346 105.327 167.527 105.336C167.709 105.345 167.886 105.389 168.05 105.466C168.214 105.544 168.362 105.653 168.483 105.788C168.605 105.922 168.699 106.08 168.76 106.25C168.82 106.421 168.847 106.603 168.837 106.784C168.828 106.965 168.783 107.143 168.705 107.306C168.626 107.47 168.517 107.617 168.381 107.738Z" fill="#912512"/>
<path d="M161.072 114.35L158.358 116.805C158.224 116.927 158.067 117.022 157.896 117.084C157.725 117.145 157.544 117.172 157.363 117.163C157.182 117.155 157.004 117.11 156.84 117.033C156.676 116.955 156.529 116.846 156.407 116.712C156.286 116.577 156.192 116.42 156.131 116.249C156.07 116.078 156.044 115.897 156.053 115.715C156.063 115.534 156.108 115.357 156.186 115.193C156.264 115.029 156.374 114.883 156.509 114.762L159.224 112.306C159.358 112.183 159.515 112.088 159.685 112.027C159.856 111.965 160.037 111.938 160.219 111.946C160.4 111.955 160.578 111.999 160.742 112.077C160.906 112.155 161.054 112.264 161.175 112.398C161.297 112.533 161.391 112.691 161.452 112.862C161.513 113.033 161.539 113.214 161.529 113.395C161.52 113.577 161.474 113.754 161.396 113.918C161.317 114.082 161.207 114.228 161.072 114.35H161.072Z" fill="#912512"/>
</g>
<defs>
<clipPath id="clip0_1047_12485">
<rect width="172.865" height="160" fill="white" transform="translate(0.567383)"/>
</clipPath>
</defs>
</svg>
