<svg width="136" height="120" viewBox="0 0 136 120" fill="none" xmlns="http://www.w3.org/2000/svg">
<path d="M18.0665 86.253C14.1929 86.2528 10.4781 84.7139 7.73904 81.9749C5 79.2359 3.46114 75.521 3.46094 71.6474C3.46094 64.6887 4.65372 63.6814 19.245 51.3597C25.6189 45.9771 34.1181 38.8472 42.6172 31.7334C59.5922 17.5272 76.5656 3.38517 76.5656 3.38517C79.5421 0.908806 83.3801 -0.28435 87.2361 0.067951C91.092 0.420252 94.6502 2.28918 97.1287 5.26395C99.6072 8.23872 100.803 12.0759 100.454 15.9321C100.104 19.7882 98.2377 23.3478 95.2647 25.8285C71.584 45.5563 33.1124 77.7218 28.5269 81.8403C27.1677 83.2388 25.5414 84.3501 23.7445 85.1081C21.9476 85.8661 20.0168 86.2555 18.0665 86.253ZM30.2758 79.6669C29.8601 80.2978 29.3964 80.8957 28.8887 81.4552C29.4007 80.8993 29.8648 80.3011 30.2758 79.6669Z" fill="#E5E5E5"/>
<path d="M14.7775 120C10.9039 120 7.18901 118.461 4.44998 115.722C1.71094 112.983 0.172076 109.268 0.171875 105.394C0.171875 98.1896 1.13823 97.4175 17.2753 84.5361C24.2536 78.9644 33.5604 71.5833 42.8654 64.2181C61.454 49.5073 80.0426 34.8607 80.0426 34.8607C83.085 32.4633 86.9551 31.3726 90.8016 31.8287C94.648 32.2847 98.1558 34.2501 100.553 37.2924C102.951 40.3348 104.041 44.2049 103.585 48.0514C103.129 51.8979 101.164 55.4057 98.1215 57.8031C72.0837 78.321 29.8145 111.741 24.9472 115.878C22.2246 118.526 18.5752 120.005 14.7775 120ZM27.0832 113.264C26.5623 114.078 25.9615 114.839 25.2896 115.534C25.9663 114.843 26.5675 114.082 27.0832 113.264Z" fill="#E5E5E5"/>
<path d="M56.9374 119.388C53.0639 119.388 49.349 117.849 46.61 115.11C43.871 112.371 42.3322 108.656 42.332 104.783C42.332 98.1201 43.4535 97.1055 57.1908 84.6927C63.2295 79.2334 71.2829 72.0039 79.3363 64.7901C95.4217 50.3842 111.505 36.0425 111.505 36.0425C114.4 33.4862 118.188 32.1801 122.043 32.4099C125.898 32.6398 129.505 34.3868 132.075 37.2689C134.645 40.151 135.969 43.9336 135.757 47.7893C135.546 51.6451 133.816 55.2602 130.946 57.8439C108.521 77.841 72.0852 110.443 67.7223 114.631C66.3555 116.132 64.69 117.331 62.8327 118.15C60.9754 118.969 58.9673 119.391 56.9374 119.388ZM69.0719 112.915C68.7739 113.358 68.4519 113.785 68.1073 114.193C68.4547 113.787 68.7768 113.36 69.0719 112.915H69.0719Z" fill="#E5E5E5"/>
<path d="M92.5689 37.9161V109.607C92.5673 111.278 91.9026 112.881 90.7207 114.062C89.5389 115.244 87.9365 115.909 86.2652 115.911H24.71C24.4933 115.916 24.2765 115.905 24.0613 115.88C22.5115 115.714 21.0772 114.983 20.0336 113.825C18.99 112.667 18.4105 111.165 18.4063 109.607V37.9161C18.4045 37.0878 18.5664 36.2673 18.8826 35.5017C19.1987 34.7361 19.663 34.0405 20.2487 33.4548C20.8344 32.8691 21.53 32.4048 22.2956 32.0886C23.0612 31.7724 23.8817 31.6106 24.71 31.6123H86.2652C87.0935 31.6106 87.914 31.7724 88.6796 32.0886C89.4452 32.4048 90.1408 32.869 90.7265 33.4547C91.3122 34.0404 91.7765 34.7361 92.0926 35.5017C92.4088 36.2673 92.5707 37.0878 92.5689 37.9161Z" fill="#D4D4D4"/>
<path d="M86.2959 37.8853V109.576C86.2942 111.247 85.6295 112.85 84.4477 114.031C83.2659 115.213 81.6635 115.878 79.9921 115.88H24.0613C22.5115 115.714 21.0772 114.983 20.0336 113.825C18.99 112.667 18.4105 111.165 18.4063 109.607V37.9161C18.4045 37.0878 18.5664 36.2673 18.8826 35.5017C19.1987 34.7361 19.663 34.0405 20.2487 33.4548C20.8344 32.8691 21.53 32.4048 22.2956 32.0886C23.0612 31.7724 23.8817 31.6106 24.71 31.6123H80.6411C82.1948 31.7679 83.6348 32.4967 84.6803 33.6565C85.7257 34.8163 86.3017 36.3239 86.2959 37.8853Z" fill="white"/>
<path d="M100.971 23.4336V95.1393C100.971 95.9688 100.808 96.7903 100.491 97.5568C100.174 98.3232 99.7089 99.0197 99.1223 99.6062C98.5357 100.193 97.8393 100.658 97.0728 100.975C96.3063 101.292 95.4848 101.455 94.6553 101.455H38.7189C37.17 101.287 35.7373 100.554 34.695 99.3962C33.6528 98.2382 33.0743 96.7364 33.0703 95.1785V46.4987H86.3003V37.8691C86.3062 36.3059 85.7249 34.7975 84.6716 33.6424C83.6182 32.4874 82.1696 31.7699 80.6125 31.632H34.2078V19.8642C34.7934 19.0366 35.5696 18.3622 36.4708 17.8979C37.372 17.4337 38.3718 17.1932 39.3856 17.1968H95.3223C96.8702 17.3493 98.306 18.0724 99.3501 19.2253C100.394 20.3781 100.972 21.8782 100.971 23.4336Z" fill="#D4D4D4"/>
<path d="M92.5684 37.9162V46.4758H86.2954V37.8853C86.3012 36.3239 85.7252 34.8163 84.6798 33.6565C83.6343 32.4967 82.1943 31.7679 80.6406 31.6123H86.2646C87.093 31.6106 87.9135 31.7724 88.6791 32.0886C89.4447 32.4048 90.1403 32.8691 90.726 33.4548C91.3117 34.0405 91.776 34.7361 92.0921 35.5017C92.4083 36.2673 92.5702 37.0878 92.5684 37.9162Z" fill="#641925"/>
<path d="M86.3094 37.8817V46.483H33.082V31.6196H80.6234C82.182 31.7647 83.6299 32.4878 84.6822 33.6467C85.7345 34.8056 86.3149 36.3163 86.3094 37.8817Z" fill="#AE1416"/>
<path d="M33.082 31.6197V46.4831H18.3985V37.9177C18.3964 37.0901 18.5578 36.2701 18.8736 35.5051C19.1893 34.74 19.6532 34.0449 20.2384 33.4596C20.8237 32.8744 21.5188 32.4106 22.2838 32.0948C23.0489 31.779 23.8688 31.6176 24.6965 31.6196L33.082 31.6197Z" fill="#F9D28D"/>
<path d="M26.4785 41.0187C27.569 41.0187 28.453 40.1347 28.453 39.0441C28.453 37.9536 27.569 37.0696 26.4785 37.0696C25.3879 37.0696 24.5039 37.9536 24.5039 39.0441C24.5039 40.1347 25.3879 41.0187 26.4785 41.0187Z" fill="#AE1416"/>
<path d="M33.0761 41.0187C34.1666 41.0187 35.0507 40.1347 35.0507 39.0441C35.0507 37.9536 34.1666 37.0696 33.0761 37.0696C31.9856 37.0696 31.1016 37.9536 31.1016 39.0441C31.1016 40.1347 31.9856 41.0187 33.0761 41.0187Z" fill="#AE1416"/>
<path d="M39.6699 41.0187C40.7604 41.0187 41.6444 40.1347 41.6444 39.0441C41.6444 37.9536 40.7604 37.0696 39.6699 37.0696C38.5794 37.0696 37.6953 37.9536 37.6953 39.0441C37.6953 40.1347 38.5794 41.0187 39.6699 41.0187Z" fill="#641925"/>
<path d="M108.385 19.723V91.4136C108.384 93.085 107.719 94.6874 106.537 95.8693C105.355 97.0511 103.753 97.7159 102.082 97.7176H40.5265C40.3098 97.7227 40.093 97.7124 39.8777 97.6867C38.3279 97.5214 36.8936 96.7898 35.85 95.6321C34.8064 94.4745 34.2269 92.9723 34.2227 91.4137V19.723C34.2209 18.8946 34.3828 18.0741 34.699 17.3086C35.0151 16.543 35.4794 15.8473 36.0651 15.2616C36.6508 14.6759 37.3464 14.2117 38.112 13.8955C38.8776 13.5793 39.6981 13.4175 40.5264 13.4192H102.082C102.91 13.4175 103.73 13.5793 104.496 13.8955C105.262 14.2117 105.957 14.6759 106.543 15.2616C107.129 15.8473 107.593 16.543 107.909 17.3086C108.225 18.0741 108.387 18.8946 108.385 19.723Z" fill="#D4D4D4"/>
<path d="M102.108 19.7075V91.3735C102.105 93.0477 101.439 94.6525 100.255 95.8363C99.0713 97.0202 97.4664 97.6864 95.7923 97.6891H39.8949C38.3391 97.53 36.8972 96.8008 35.8471 95.642C34.7969 94.4832 34.2127 92.9768 34.207 91.4129V19.7075C34.2073 18.88 34.3711 18.0608 34.689 17.2969C35.007 16.533 35.4728 15.8395 36.0597 15.2562C36.6466 14.6729 37.343 14.2114 38.1089 13.8982C38.8748 13.5851 39.695 13.4264 40.5224 13.4313H96.4591C98.013 13.5866 99.453 14.3159 100.498 15.4766C101.542 16.6373 102.116 18.1459 102.108 19.7075Z" fill="white"/>
<path d="M108.385 19.723V28.2827H102.112V19.6922C102.118 18.1308 101.542 16.6231 100.496 15.4634C99.4507 14.3036 98.0107 13.5748 96.457 13.4192H102.081C102.909 13.4175 103.73 13.5793 104.495 13.8955C105.261 14.2117 105.957 14.676 106.542 15.2617C107.128 15.8474 107.592 16.543 107.909 17.3086C108.225 18.0742 108.387 18.8947 108.385 19.723Z" fill="#641925"/>
<path d="M102.108 19.7075V28.298H34.207V19.7075C34.2073 18.88 34.3711 18.0608 34.689 17.2969C35.007 16.533 35.4728 15.8395 36.0597 15.2562C36.6466 14.6729 37.343 14.2114 38.1089 13.8982C38.8748 13.5851 39.695 13.4264 40.5224 13.4313H96.4591C98.013 13.5866 99.453 14.3159 100.498 15.4766C101.542 16.6373 102.116 18.1459 102.108 19.7075Z" fill="#AE1416"/>
<path d="M42.2949 22.8256C43.3854 22.8256 44.2694 21.9416 44.2694 20.851C44.2694 19.7605 43.3854 18.8765 42.2949 18.8765C41.2044 18.8765 40.3203 19.7605 40.3203 20.851C40.3203 21.9416 41.2044 22.8256 42.2949 22.8256Z" fill="#641925"/>
<path d="M48.8925 22.8256C49.9831 22.8256 50.8671 21.9416 50.8671 20.851C50.8671 19.7605 49.9831 18.8765 48.8925 18.8765C47.802 18.8765 46.918 19.7605 46.918 20.851C46.918 21.9416 47.802 22.8256 48.8925 22.8256Z" fill="#641925"/>
<path d="M55.4863 22.8256C56.5768 22.8256 57.4608 21.9416 57.4608 20.851C57.4608 19.7605 56.5768 18.8765 55.4863 18.8765C54.3958 18.8765 53.5117 19.7605 53.5117 20.851C53.5117 21.9416 54.3958 22.8256 55.4863 22.8256Z" fill="#641925"/>
<path d="M56.3614 53.8899C58.0626 53.8899 59.4416 52.5108 59.4416 50.8097C59.4416 49.1085 58.0626 47.7295 56.3614 47.7295C54.6603 47.7295 53.2812 49.1085 53.2812 50.8097C53.2812 52.5108 54.6603 53.8899 56.3614 53.8899Z" fill="#AE1416"/>
<path d="M85.9435 53.8899C87.6446 53.8899 89.0237 52.5108 89.0237 50.8097C89.0237 49.1085 87.6446 47.7295 85.9435 47.7295C84.2423 47.7295 82.8633 49.1085 82.8633 50.8097C82.8633 52.5108 84.2423 53.8899 85.9435 53.8899Z" fill="#AE1416"/>
<path d="M57.7479 70.8341C57.2438 70.8347 56.754 70.6659 56.3573 70.3548C55.9606 70.0437 55.6799 69.6083 55.5603 69.1185C55.4407 68.6288 55.4891 68.113 55.6978 67.6541C55.9065 67.1951 56.2634 66.8196 56.7111 66.5878C60.9484 64.5645 65.5804 63.5023 70.276 63.4773C74.9715 63.4522 79.6146 64.4649 83.8732 66.4429C84.404 66.7122 84.8064 67.1809 84.9923 67.7463C85.1782 68.3117 85.1325 68.9278 84.8652 69.4595C84.5978 69.9913 84.1307 70.3955 83.566 70.5835C83.0013 70.7716 82.385 70.7282 81.8523 70.4628C78.221 68.828 74.2806 67.9931 70.2983 68.0147C66.3161 68.0363 62.385 68.9138 58.7716 70.5878C58.4546 70.7494 58.1038 70.8338 57.7479 70.8341Z" fill="#AE1416"/>
<path d="M7.52348 108.342C7.29259 108.551 6.98797 108.66 6.67663 108.645C6.36528 108.63 6.07272 108.492 5.8633 108.261L3.77677 105.954C3.56738 105.723 3.45851 105.418 3.47413 105.106C3.48975 104.794 3.62856 104.501 3.86004 104.292C4.09151 104.083 4.39669 103.974 4.70843 103.989C5.02017 104.005 5.31294 104.144 5.52233 104.375L7.60893 106.682C7.81772 106.913 7.92601 107.218 7.90998 107.53C7.89396 107.841 7.75493 108.133 7.52348 108.342Z" fill="#AE1416"/>
<path d="M13.1411 114.552C13.0268 114.656 12.8931 114.736 12.7478 114.788C12.6025 114.84 12.4484 114.863 12.2942 114.855C12.14 114.848 11.9889 114.81 11.8493 114.744C11.7098 114.678 11.5845 114.585 11.4809 114.471L9.39436 112.164C9.18661 111.933 9.0791 111.628 9.09536 111.317C9.11162 111.007 9.25033 110.715 9.48113 110.506C9.71193 110.297 10.016 110.188 10.3269 110.203C10.6378 110.218 10.9301 110.356 11.1399 110.585L13.2265 112.892C13.4353 113.124 13.5436 113.428 13.5276 113.74C13.5116 114.051 13.3725 114.343 13.1411 114.552Z" fill="#AE1416"/>
<path d="M13.5591 106.431L11.2464 108.523C11.132 108.627 10.9985 108.707 10.8533 108.758C10.7081 108.81 10.5542 108.833 10.4002 108.825C10.0893 108.81 9.7973 108.671 9.58847 108.44C9.37963 108.209 9.27105 107.905 9.28663 107.594C9.3022 107.283 9.44065 106.991 9.67151 106.782L11.9843 104.69C12.0985 104.586 12.2321 104.506 12.3775 104.454C12.5228 104.401 12.677 104.378 12.8313 104.386C12.9856 104.393 13.1368 104.431 13.2764 104.497C13.416 104.563 13.5412 104.656 13.6449 104.771C13.7485 104.885 13.8285 105.019 13.8802 105.165C13.932 105.31 13.9546 105.465 13.9466 105.619C13.9386 105.773 13.9003 105.924 13.8338 106.064C13.7673 106.203 13.674 106.328 13.5591 106.431Z" fill="#AE1416"/>
<path d="M7.33116 112.064L5.01858 114.156C4.90437 114.26 4.77076 114.34 4.62541 114.392C4.48006 114.445 4.32583 114.468 4.17157 114.46C4.0173 114.453 3.86603 114.415 3.72642 114.349C3.58681 114.283 3.46161 114.19 3.358 114.075C3.25439 113.961 3.1744 113.827 3.12262 113.681C3.07084 113.536 3.04828 113.382 3.05625 113.227C3.06421 113.073 3.10254 112.922 3.16903 112.783C3.23552 112.643 3.32887 112.518 3.44373 112.415L5.75654 110.323C5.87072 110.219 6.00437 110.138 6.14979 110.086C6.29522 110.033 6.44957 110.01 6.60397 110.017C6.75838 110.025 6.9098 110.063 7.04954 110.129C7.18928 110.195 7.31459 110.288 7.41828 110.403C7.52197 110.517 7.60199 110.651 7.65375 110.797C7.7055 110.943 7.72798 111.097 7.71989 111.251C7.71179 111.406 7.67328 111.557 7.60657 111.696C7.53987 111.836 7.44627 111.961 7.33116 112.064Z" fill="#AE1416"/>
<path d="M4.81443 9.60892C4.74756 9.66956 4.66941 9.71645 4.58442 9.74689C4.49944 9.77733 4.4093 9.79074 4.31913 9.78634C4.22897 9.78195 4.14055 9.75983 4.05894 9.72127C3.97732 9.6827 3.9041 9.62844 3.84345 9.56157L2.62317 8.21254C2.50071 8.07716 2.43704 7.89868 2.44618 7.71636C2.45531 7.53404 2.5365 7.36282 2.67188 7.24036C2.80726 7.11789 2.98574 7.05423 3.16806 7.06336C3.35038 7.0725 3.5216 7.15369 3.64407 7.28907L4.86442 8.63813C4.98652 8.7735 5.04984 8.95182 5.04047 9.13388C5.03109 9.31593 4.94978 9.48681 4.81443 9.60892Z" fill="#AE1416"/>
<path d="M8.09962 13.2412C8.03276 13.3019 7.9546 13.3488 7.86962 13.3792C7.78464 13.4097 7.69449 13.4231 7.60433 13.4187C7.51416 13.4143 7.42575 13.3922 7.34413 13.3536C7.26251 13.315 7.18929 13.2608 7.12865 13.1939L5.90832 11.8449C5.78586 11.7095 5.7222 11.531 5.73133 11.3487C5.74047 11.1664 5.82165 10.9951 5.95703 10.8727C6.09241 10.7502 6.2709 10.6866 6.45322 10.6957C6.63554 10.7048 6.80676 10.786 6.92922 10.9214L8.14958 12.2705C8.27167 12.4058 8.335 12.5841 8.32563 12.7662C8.31626 12.9482 8.23496 13.1191 8.09962 13.2412Z" fill="#AE1416"/>
<path d="M8.34679 8.49183L6.99412 9.71544C6.92738 9.77661 6.8492 9.82398 6.76409 9.85481C6.67897 9.88564 6.58859 9.89934 6.49816 9.8951C6.40773 9.89087 6.31903 9.86879 6.23716 9.83014C6.1553 9.79149 6.08189 9.73702 6.02115 9.66989C5.96042 9.60275 5.91357 9.52427 5.88329 9.43895C5.85301 9.35363 5.8399 9.26317 5.84472 9.17277C5.84955 9.08237 5.8722 8.99381 5.91138 8.9122C5.95057 8.83059 6.0055 8.75753 6.07303 8.69724L7.42569 7.47362C7.49243 7.41245 7.57061 7.36509 7.65573 7.33426C7.74085 7.30342 7.83122 7.28973 7.92166 7.29396C8.01209 7.2982 8.10079 7.32028 8.18265 7.35893C8.26452 7.39758 8.33793 7.45204 8.39866 7.51918C8.45939 7.58631 8.50625 7.6648 8.53653 7.75012C8.56681 7.83543 8.57992 7.92589 8.57509 8.01629C8.57027 8.1067 8.54762 8.19525 8.50843 8.27687C8.46925 8.35848 8.41432 8.43154 8.34679 8.49183Z" fill="#AE1416"/>
<path d="M4.70601 11.7861L3.3535 13.0095C3.28676 13.0707 3.20858 13.118 3.12346 13.1489C3.03834 13.1797 2.94797 13.1934 2.85754 13.1891C2.7671 13.1849 2.6784 13.1628 2.59654 13.1242C2.51467 13.0855 2.44126 13.0311 2.38053 12.9639C2.3198 12.8968 2.27294 12.8183 2.24266 12.733C2.21238 12.6477 2.19928 12.5572 2.2041 12.4668C2.20892 12.3764 2.23158 12.2879 2.27076 12.2062C2.30994 12.1246 2.36488 12.0516 2.43241 11.9913L3.78507 10.7677C3.92011 10.6455 4.09813 10.5821 4.27997 10.5912C4.46181 10.6003 4.63258 10.6813 4.7547 10.8164C4.87683 10.9514 4.9403 11.1294 4.93117 11.3113C4.92204 11.4931 4.84105 11.6639 4.70601 11.786V11.7861Z" fill="#AE1416"/>
<path d="M115.273 108.196C115.206 108.256 115.128 108.303 115.043 108.334C114.958 108.364 114.868 108.378 114.778 108.373C114.688 108.369 114.599 108.347 114.518 108.308C114.436 108.27 114.363 108.215 114.302 108.148L113.082 106.799C112.96 106.664 112.898 106.486 112.907 106.304C112.917 106.122 112.998 105.952 113.133 105.83C113.268 105.708 113.446 105.644 113.627 105.653C113.809 105.661 113.98 105.742 114.103 105.876L115.323 107.225C115.445 107.36 115.509 107.539 115.499 107.721C115.49 107.903 115.409 108.074 115.273 108.196Z" fill="#AE1416"/>
<path d="M118.561 111.828C118.426 111.95 118.247 112.014 118.065 112.005C117.883 111.996 117.712 111.916 117.59 111.781L116.369 110.432C116.247 110.296 116.183 110.118 116.192 109.935C116.201 109.753 116.283 109.582 116.418 109.459C116.553 109.337 116.732 109.273 116.914 109.282C117.096 109.291 117.268 109.373 117.39 109.508L118.611 110.857C118.733 110.993 118.796 111.171 118.787 111.353C118.777 111.535 118.696 111.706 118.561 111.828Z" fill="#AE1416"/>
<path d="M118.804 107.078L117.451 108.302C117.384 108.363 117.306 108.411 117.221 108.441C117.136 108.472 117.046 108.486 116.955 108.482C116.865 108.477 116.776 108.455 116.694 108.417C116.612 108.378 116.539 108.324 116.478 108.257C116.417 108.189 116.371 108.111 116.34 108.026C116.31 107.94 116.297 107.85 116.302 107.759C116.307 107.669 116.329 107.58 116.368 107.499C116.408 107.417 116.463 107.344 116.53 107.284L117.883 106.06C117.95 106 118.028 105.953 118.113 105.922C118.198 105.891 118.288 105.878 118.378 105.882C118.468 105.887 118.557 105.909 118.638 105.948C118.72 105.986 118.793 106.041 118.854 106.108C118.915 106.175 118.961 106.253 118.992 106.338C119.022 106.423 119.035 106.513 119.03 106.603C119.026 106.694 119.003 106.782 118.964 106.864C118.926 106.945 118.871 107.018 118.804 107.079V107.078Z" fill="#AE1416"/>
<path d="M115.163 110.373L113.811 111.596C113.744 111.657 113.666 111.705 113.58 111.736C113.495 111.766 113.405 111.78 113.315 111.776C113.224 111.772 113.135 111.75 113.054 111.711C112.972 111.672 112.898 111.618 112.838 111.551C112.777 111.483 112.73 111.405 112.7 111.32C112.669 111.234 112.656 111.144 112.661 111.053C112.666 110.963 112.689 110.875 112.728 110.793C112.767 110.711 112.822 110.638 112.889 110.578L114.242 109.354C114.309 109.294 114.387 109.247 114.472 109.217C114.557 109.187 114.647 109.173 114.737 109.178C114.827 109.182 114.915 109.205 114.997 109.243C115.078 109.282 115.151 109.336 115.212 109.403C115.272 109.47 115.319 109.548 115.349 109.633C115.379 109.718 115.393 109.808 115.388 109.898C115.384 109.988 115.361 110.076 115.323 110.158C115.284 110.239 115.23 110.312 115.163 110.373V110.373Z" fill="#AE1416"/>
<path d="M125.801 14.7309L127.811 14.3164C128.013 14.272 128.193 14.1601 128.323 13.9991C128.452 13.8381 128.523 13.6377 128.523 13.4311C128.523 13.2245 128.452 13.0242 128.323 12.8632C128.193 12.7022 128.013 12.5902 127.811 12.5458L125.801 12.1314C124.825 11.925 123.932 11.4359 123.233 10.725C122.534 10.0141 122.06 9.11297 121.87 8.13416L121.462 6.09005C121.424 5.88672 121.317 5.70302 121.158 5.5708C120.999 5.43859 120.798 5.36621 120.592 5.36621C120.385 5.36621 120.184 5.43859 120.025 5.5708C119.866 5.70302 119.759 5.88672 119.721 6.09005L119.313 8.13416C119.123 9.11297 118.649 10.0141 117.95 10.725C117.251 11.4359 116.358 11.925 115.382 12.1314L113.372 12.5458C113.17 12.5902 112.99 12.7022 112.86 12.8632C112.731 13.0242 112.66 13.2245 112.66 13.4311C112.66 13.6377 112.731 13.8381 112.86 13.9991C112.99 14.1601 113.17 14.272 113.372 14.3164L115.382 14.7309C116.358 14.9372 117.251 15.4263 117.95 16.1372C118.649 16.8481 119.123 17.7492 119.313 18.728L119.721 20.7722C119.759 20.9755 119.866 21.1592 120.025 21.2914C120.184 21.4236 120.385 21.496 120.592 21.496C120.798 21.496 120.999 21.4236 121.158 21.2914C121.317 21.1592 121.424 20.9755 121.462 20.7722L121.87 18.728C122.06 17.7492 122.534 16.8481 123.233 16.1372C123.932 15.4264 124.825 14.9372 125.801 14.7309Z" fill="#F9D28D"/>
<path d="M12.7748 66.0181L14.4919 65.6641C14.6642 65.6262 14.8185 65.5306 14.929 65.3931C15.0396 65.2556 15.0999 65.0844 15.0999 64.9079C15.0999 64.7315 15.0396 64.5603 14.929 64.4228C14.8185 64.2853 14.6642 64.1896 14.4919 64.1518L12.7748 63.7978C11.9416 63.6216 11.1788 63.2038 10.5816 62.5965C9.98447 61.9893 9.57945 61.2197 9.41716 60.3836L9.06899 58.6375C9.03673 58.4638 8.9447 58.3069 8.80888 58.194C8.67305 58.0811 8.50198 58.0193 8.32535 58.0193C8.14872 58.0193 7.97766 58.0811 7.84183 58.194C7.70601 58.3069 7.61398 58.4638 7.58171 58.6375L7.23351 60.3836C7.07123 61.2196 6.66621 61.9893 6.06906 62.5965C5.4719 63.2038 4.70908 63.6216 3.87587 63.7978L2.15879 64.1518C1.98645 64.1896 1.83221 64.2853 1.72164 64.4228C1.61106 64.5603 1.55078 64.7315 1.55078 64.9079C1.55078 65.0844 1.61106 65.2556 1.72164 65.3931C1.83221 65.5306 1.98645 65.6262 2.15879 65.6641L3.87587 66.0181C4.70908 66.1943 5.4719 66.6121 6.06905 67.2193C6.66621 67.8265 7.07123 68.5962 7.23351 69.4322L7.58171 71.1784C7.61398 71.352 7.70601 71.5089 7.84183 71.6218C7.97766 71.7347 8.14872 71.7966 8.32535 71.7966C8.50198 71.7966 8.67305 71.7347 8.80888 71.6218C8.9447 71.5089 9.03673 71.352 9.06899 71.1784L9.41716 69.4322C9.57947 68.5962 9.98449 67.8265 10.5817 67.2193C11.1788 66.6121 11.9416 66.1943 12.7748 66.0181Z" fill="#F9D28D"/>
<path d="M33.8857 9.36564L34.7443 9.1886C34.8304 9.16965 34.9075 9.12184 34.9628 9.05308C35.0181 8.98433 35.0482 8.89875 35.0482 8.81053C35.0482 8.72231 35.0181 8.63673 34.9628 8.56798C34.9075 8.49922 34.8304 8.45141 34.7443 8.43246L33.8857 8.25546C33.4691 8.16736 33.0877 7.95845 32.7891 7.65485C32.4906 7.35125 32.288 6.96641 32.2069 6.54839L32.0327 5.6754C32.0165 5.58855 31.9705 5.51008 31.9026 5.45361C31.8347 5.39713 31.7492 5.36621 31.6608 5.36621C31.5725 5.36621 31.487 5.39713 31.419 5.45361C31.3511 5.51008 31.3051 5.58855 31.289 5.6754L31.1148 6.54839C31.0336 6.9664 30.8311 7.35125 30.5325 7.65485C30.234 7.95845 29.8526 8.16735 29.436 8.25546L28.5774 8.43246C28.4912 8.45141 28.4141 8.49922 28.3589 8.56798C28.3036 8.63673 28.2734 8.72231 28.2734 8.81053C28.2734 8.89875 28.3036 8.98433 28.3589 9.05308C28.4141 9.12184 28.4912 9.16965 28.5774 9.1886L29.436 9.36564C29.8526 9.45374 30.234 9.66264 30.5326 9.96625C30.8311 10.2698 31.0336 10.6547 31.1148 11.0727L31.289 11.9457C31.3051 12.0325 31.3511 12.111 31.419 12.1675C31.487 12.2239 31.5725 12.2548 31.6608 12.2548C31.7492 12.2548 31.8347 12.2239 31.9026 12.1675C31.9705 12.111 32.0165 12.0325 32.0327 11.9457L32.2069 11.0727C32.288 10.6547 32.4906 10.2699 32.7891 9.96625C33.0877 9.66265 33.4691 9.45374 33.8857 9.36564Z" fill="#F9D28D"/>
<path d="M119.237 73.3391L120.239 73.1325C120.339 73.1105 120.429 73.0547 120.494 72.9745C120.559 72.8942 120.594 72.7943 120.594 72.6913C120.594 72.5883 120.559 72.4883 120.494 72.4081C120.429 72.3278 120.339 72.272 120.239 72.25L119.237 72.0434C118.751 71.9406 118.305 71.6969 117.957 71.3426C117.609 70.9883 117.372 70.5392 117.278 70.0514L117.074 69.0325C117.056 68.9312 117.002 68.8397 116.923 68.7738C116.843 68.7079 116.744 68.6719 116.641 68.6719C116.538 68.6719 116.438 68.7079 116.358 68.7738C116.279 68.8397 116.226 68.9312 116.207 69.0325L116.004 70.0514C115.909 70.5392 115.673 70.9883 115.324 71.3426C114.976 71.6969 114.531 71.9406 114.044 72.0434L113.043 72.25C112.942 72.272 112.852 72.3278 112.787 72.4081C112.723 72.4883 112.687 72.5883 112.688 72.6913C112.687 72.7943 112.723 72.8942 112.787 72.9745C112.852 73.0547 112.942 73.1105 113.043 73.1325L114.044 73.3391C114.531 73.4419 114.976 73.6857 115.324 74.04C115.673 74.3943 115.909 74.8434 116.004 75.3312L116.207 76.35C116.226 76.4514 116.279 76.5429 116.358 76.6087C116.438 76.6746 116.538 76.7107 116.641 76.7107C116.744 76.7107 116.843 76.6746 116.923 76.6087C117.002 76.5429 117.056 76.4514 117.074 76.35L117.278 75.3312C117.372 74.8434 117.609 74.3943 117.957 74.04C118.306 73.6857 118.751 73.4419 119.237 73.3391Z" fill="#F9D28D"/>
</svg>
